<?xml version="1.0" encoding="UTF-8" standalone="no"?>
<svg
   xmlns:dc="http://purl.org/dc/elements/1.1/"
   xmlns:cc="http://creativecommons.org/ns#"
   xmlns:rdf="http://www.w3.org/1999/02/22-rdf-syntax-ns#"
   xmlns:svg="http://www.w3.org/2000/svg"
   xmlns="http://www.w3.org/2000/svg"
   xmlns:sodipodi="http://sodipodi.sourceforge.net/DTD/sodipodi-0.dtd"
   xmlns:inkscape="http://www.inkscape.org/namespaces/inkscape"
   inkscape:version="1.0 (4035a4fb49, 2020-05-01)"
   sodipodi:docname="GMM-logo.svg"
   id="svg32"
   preserveAspectRatio="xMidYMid meet"
   viewBox="0 0 2400.000000 2400.000000"
   height="2400.000000pt"
   width="2400.000000pt"
   version="1.0">
  <defs
     id="defs36" />
  <sodipodi:namedview
     inkscape:current-layer="g30"
     inkscape:window-maximized="1"
     inkscape:window-y="-8"
     inkscape:window-x="-8"
     inkscape:cy="1600"
     inkscape:cx="1600"
     inkscape:zoom="0.27125"
     showgrid="false"
     id="namedview34"
     inkscape:window-height="1058"
     inkscape:window-width="1858"
     inkscape:pageshadow="2"
     inkscape:pageopacity="0"
     guidetolerance="10"
     gridtolerance="10"
     objecttolerance="10"
     borderopacity="1"
     bordercolor="#666666"
     pagecolor="#ffffff" />
  <metadata
     id="metadata24">
Created by potrace 1.11, written by Peter Selinger 2001-2013
<rdf:RDF>
  <cc:Work
     rdf:about="">
    <dc:format>image/svg+xml</dc:format>
    <dc:type
       rdf:resource="http://purl.org/dc/dcmitype/StillImage" />
    <dc:title></dc:title>
  </cc:Work>
</rdf:RDF>
</metadata>
  <g
     id="g30"
     stroke="none"
     fill="#000000"
     transform="translate(0.000000,2400.000000) scale(0.100000,-0.100000)">
    <path
       id="path26"
       d="M8816 22953 c-3 -16 -73 -417 -156 -893 -82 -476 -153 -871 -157 -878 -5 -7 -73 -39 -153 -71 -1549 -625 -2944 -1665 -3986 -2971 -1080 -1354 -1787 -2968 -2039 -4650 -14 -96 -31 -186 -36 -199 -20 -49 -60 -433 -79 -765 -13 -230 -13 -808 0 -1051 12 -218 31 -422 62 -683 l22 -184 -40 -37 c-83 -78 -194 -180 -304 -281 -63 -58 -146 -134 -185 -170 -84 -79 -99 -92 -522 -484 -183 -168 -334 -310 -337 -315 -3 -4 122 -228 277 -497 155 -269 881 -1525 1612 -2791 731 -1267 1334 -2303 1340 -2303 6 0 85 27 176 61 90 33 286 105 434 159 880 322 1096 400 1104 400 6 0 36 -22 69 -49 183 -153 632 -469 927 -653 500 -312 1151 -630 1760 -858 1454 -545 3063 -737 4605 -550 823 100 1654 308 2395 600 99 39 189 72 200 74 54 9 374 155 690 314 513 260 962 538 1433 889 l193 143 52 -16 c29 -9 66 -20 82 -26 47 -15 503 -157 570 -177 116 -35 650 -202 675 -211 14 -5 72 -23 130 -40 58 -18 147 -45 198 -62 51 -16 97 -28 102 -26 12 4 3232 5579 3228 5588 -3 7 -195 169 -998 838 -201 168 -373 313 -384 322 -18 18 -18 21 2 167 111 782 124 1556 41 2373 -192 1889 -916 3661 -2105 5152 -762 956 -1725 1780 -2794 2391 -335 191 -801 420 -1137 557 -46 18 -85 41 -87 49 -3 9 -96 419 -206 911 -111 492 -204 903 -206 913 -5 16 -168 17 -3234 17 l-3228 0 -6 -27z m5928 -510 c8 -27 235 -999 316 -1353 39 -173 75 -328 79 -345 7 -28 18 -34 197 -103 394 -152 864 -370 1189 -552 1060 -592 1973 -1362 2720 -2290 1164 -1447 1863 -3202 2014 -5055 33 -401 39 -1112 11 -1445 -26 -320 -75 -695 -132 -1013 l-12 -67 44 -43 c25 -23 86 -76 135 -117 50 -41 95 -80 102 -86 6 -6 57 -49 114 -95 56 -46 145 -120 198 -164 53 -45 224 -188 381 -319 382 -320 355 -295 343 -315 -5 -9 -612 -1059 -1347 -2333 -804 -1393 -1344 -2318 -1352 -2318 -8 0 -88 22 -177 49 -89 27 -178 54 -197 59 -42 11 -449 134 -535 161 -33 11 -100 31 -150 46 -49 15 -99 31 -110 35 -11 5 -40 14 -65 20 -25 6 -54 15 -65 20 -11 5 -51 18 -90 28 -38 11 -125 37 -192 57 -121 37 -122 37 -147 19 -13 -11 -89 -71 -168 -135 -242 -196 -689 -519 -717 -519 -5 0 -50 -26 -98 -57 -467 -301 -1049 -599 -1582 -810 -902 -357 -1797 -559 -2816 -635 -223 -16 -967 -16 -1190 0 -1303 97 -2449 410 -3565 973 -578 291 -1182 679 -1635 1049 -38 32 -75 59 -82 61 -6 2 -55 42 -108 88 l-97 83 -47 -10 c-45 -10 -110 -32 -431 -152 -91 -34 -311 -115 -490 -180 -179 -65 -399 -146 -490 -179 -90 -34 -169 -61 -175 -61 -6 0 -617 1051 -1359 2336 l-1349 2336 34 30 c19 17 108 101 199 187 91 85 194 183 230 216 36 34 108 102 160 152 52 50 119 112 149 139 30 27 71 65 92 84 68 64 261 245 288 269 14 13 56 52 92 87 l67 64 -14 72 c-50 260 -105 734 -109 928 -1 80 -6 296 -10 480 -12 533 20 1039 100 1565 390 2571 1841 4857 4000 6300 631 423 1339 780 2020 1020 115 41 120 44 128 76 10 40 75 405 198 1114 50 286 93 530 96 543 l5 22 2698 0 c2562 0 2699 -1 2704 -17z" />
    <path
       style="fill:#000000;stroke:none;stroke-width:1.04737"
       id="path52"
       d="m 8266.2078,15191.759 c -393.9902,-81.381 -811.4083,-405.886 -1232.0202,-958.056 -826.3164,-1085.801 -1545.084,-2945.256 -1760.1817,-4548.2004 -46.8529,-350.2593 -57.5014,-515.0861 -57.5014,-885.9456 0,-377.0432 10.6485,-522.2968 57.5014,-777.7799 143.7534,-771.5973 519.6424,-1209.4196 1110.6289,-1293.8936 281.1178,-40.1767 559.0413,12.3621 838.0296,157.616 265.1448,138.0429 486.6319,309.0511 798.6301,617.0717 273.6644,269.9061 453.6225,477.9995 915.7642,1060.0453 148.012,187.492 314.1276,392.4954 369.4992,455.3352 l 100.0945,116.4102 h 2618.4426 2618.441 l 100.095,-116.4102 c 55.372,-62.8398 234.267,-284.3273 399.315,-491.3908 485.568,-611.921 668.721,-818.9854 977.525,-1112.5837 261.951,-247.2412 442.974,-385.2841 669.785,-508.9044 296.027,-160.7067 582.468,-219.4263 875.299,-177.1893 137.364,19.5732 250.237,53.5689 366.305,110.2282 723.026,350.2577 974.33,1491.687 696.406,3156.4439 -223.617,1339.2174 -787.981,2836.0554 -1459.897,3877.5564 -217.227,335.834 -420.612,588.227 -659.135,821.045 -282.184,274.028 -510.06,417.221 -778.399,490.362 -84.122,23.693 -89.447,23.693 -994.563,26.785 -883.816,3.089 -911.503,2.059 -979.652,-17.514 -90.512,-26.785 -222.553,-108.167 -436.583,-268.874 -192.738,-144.224 -298.157,-210.154 -380.151,-238.999 -52.175,-17.515 -110.743,-18.545 -1014.791,-18.545 -904.052,0 -962.616,1.03 -1014.796,18.545 -81.991,28.845 -187.41,94.775 -380.145,238.999 -212.968,159.677 -345.011,241.059 -434.456,267.843 -66.02,19.575 -99.03,20.604 -954.0964,19.575 -813.5371,0 -892.3359,-2.06 -975.3938,-19.575 z m 7148.2752,-1281.53 c 111.806,-25.757 209.772,-109.199 248.106,-214.274 21.297,-56.661 21.297,-165.859 0,-222.519 -88.382,-238.997 -405.704,-303.899 -581.402,-119.499 -69.216,72.111 -90.51,126.71 -90.51,230.757 0,66.961 5.322,98.897 22.359,134.954 44.724,92.715 133.106,163.797 237.462,190.581 63.889,16.482 89.444,16.482 163.985,0 z m -6626.5031,-505.813 v -365.712 h 378.0191 378.0171 l -2.1285,-243.119 -3.1943,-242.091 -374.8238,1.031 h -375.8896 l -2.1295,-367.77 -3.1942,-368.802 -252.3676,-3.09 -253.4323,-2.061 v 370.862 370.861 h -378.0181 -378.0181 v 242.091 242.088 h 378.0181 378.0181 v 365.712 365.709 h 255.5618 255.5618 z m 5774.6301,-318.323 c 115.003,-25.753 220.421,-121.56 252.366,-228.698 19.167,-63.869 9.584,-185.433 -19.166,-243.121 -33.011,-64.901 -102.225,-129.801 -172.505,-161.735 -85.187,-38.118 -204.449,-37.087 -288.571,2.061 -70.281,32.963 -140.559,101.984 -172.505,169.978 -33.011,67.991 -33.011,203.971 -1.065,270.931 45.789,94.777 140.558,169.979 245.978,193.675 58.567,13.392 86.252,12.361 155.468,-3.091 z m 1793.189,-26.784 c 120.329,-57.69 189.543,-165.859 189.543,-298.751 0,-66.959 -5.325,-87.565 -35.138,-146.284 -61.761,-122.589 -171.44,-188.52 -310.935,-188.52 -140.56,1.03 -249.174,66.961 -310.934,188.52 -29.814,58.719 -35.139,78.295 -35.139,146.284 1.064,61.811 6.39,89.625 28.75,134.951 85.188,179.252 290.703,250.333 473.853,163.8 z m -857.195,-832.378 c 68.15,-31.936 134.17,-98.896 167.18,-166.889 36.205,-75.201 38.334,-196.761 4.26,-269.902 -31.945,-67.992 -101.161,-137.015 -172.505,-169.979 -51.112,-24.725 -72.409,-28.846 -150.143,-28.846 -77.732,0 -99.029,4.121 -151.207,28.846 -177.827,84.473 -249.173,301.838 -151.208,466.666 33.012,56.659 121.393,132.892 177.829,152.465 68.15,24.724 211.904,17.513 275.794,-12.361 z m -4799.236,-1325.829 c 256.627,-52.538 474.918,-262.692 533.485,-516.114 36.203,-158.646 4.257,-343.045 -83.059,-486.2394 -55.372,-91.686 -170.374,-196.762 -269.402,-246.213 -113.94,-56.657 -201.256,-78.292 -324.777,-78.292 -272.601,-1.03 -511.124,143.194 -628.2578,379.103 -53.24,108.1684 -68.1484,174.0994 -67.0838,293.6004 1.0654,264.752 146.9496,487.267 393.9906,603.677 135.235,63.871 292.831,81.384 445.104,50.478 z m 2947.48,0 c 145.883,-29.875 302.414,-124.65 395.054,-237.968 102.224,-125.68 148.012,-259.602 148.012,-426.491 -1.064,-190.579 -70.279,-343.0444 -217.227,-479.0274 -135.233,-124.652 -290.7,-184.402 -478.113,-183.372 -188.477,1.031 -354.593,66.961 -484.502,193.673 -130.976,127.742 -194.866,264.7534 -204.449,437.8224 -7.456,126.712 13.843,226.637 73.473,343.046 87.317,168.947 276.859,312.141 466.401,351.286 90.51,19.575 211.902,19.575 301.351,1.031 z" />
    <path
       style="fill:#000000;stroke:none;stroke-width:1.15"
       id="path90"
       d="m 11592.75,19449.596 c -264.5,-13.8 -592.25,-52.9 -598,-72.45 -2.3,-6.9 19.55,-182.85 49.45,-392.15 l 55.2,-379.5 -29.9,-8.05 c -16.1,-4.6 -129.95,-26.45 -253,-48.3 -271.4,-49.45 -463.45,-89.7 -563.5,-119.6 -41.4,-12.65 -126.5,-36.8 -189.75,-54.05 -63.25,-17.25 -140.3,-40.25 -172.5,-51.75 -31.05,-12.65 -109.25,-40.25 -172.5,-63.25 -63.25,-23 -154.0999,-58.65 -202.3999,-80.5 l -88.55,-37.95 -152.95,354.2 c -83.95,195.5 -155.25,361.1 -159.85,368 -9.2,13.8 -29.9,5.75 -322,-134.55 -264.5,-126.5 -737.15,-396.75 -810.75,-463.45 -12.65,-11.5 -40.25,-28.75 -60.95,-39.1 -60.95,-31.05 -369.15,-257.6 -462.3,-340.4 -21.85,-19.55 -47.15,-40.25 -56.35,-46 -8.05,-4.6 -11.5,-14.95 -8.05,-21.85 4.6,-6.9 113.85,-142.6 243.8,-301.3 129.95,-159.85 233.45,-293.25 232.3,-297.85 -2.3,-3.45 -44.85,-42.55 -95.45,-86.25 -382.95,-327.75 -750.95,-717.6 -982.1,-1039.6 -29.9,-41.4 -57.5,-69 -65.55,-65.55 -8.05,3.45 -150.65,104.65 -316.25,226.55 l -301.3,219.65 -20.7,-26.45 c -24.15,-31.05 -129.95,-182.85 -187.45,-269.1 -110.4,-163.3 -382.95,-645.15 -445.05,-782 -13.8,-31.05 -55.2,-121.9 -90.85,-201.25 -72.45,-155.25 -147.2,-330.05 -151.8,-354.2 -3.45,-14.95 52.9,-37.95 534.75,-226.55 196.65,-75.9 184,-50.6 117.3,-230 -58.65,-155.25 -92,-251.85 -113.85,-327.75 -9.2,-34.5 -28.75,-102.35 -42.55,-149.5 -31.05,-105.8 -60.95,-241.5 -90.85,-405.95 -11.5,-67.85 -25.3,-128.8 -28.75,-135.7 -10.35,-16.1 -74.75,-409.4 -74.75,-455.4 0,-47.15 25.3,-47.15 -402.5,1.15 -186.3,21.85 -340.4,39.1 -341.55,37.95 -11.5,-13.8 -26.45,-470.35 -26.45,-847.55 0,-377.2 14.95,-833.75 26.45,-847.55 1.15,-1.15 155.25,16.1 341.55,37.95 427.8,48.3 402.5,48.3 402.5,2.3 0,-47.15 64.4,-440.45 74.75,-456.55 3.45,-6.9 17.25,-67.85 28.75,-135.7 29.9,-164.45 59.8,-300.15 90.85,-405.95 13.8,-47.15 33.35,-115 42.55,-149.5 21.85,-75.9 55.2,-172.4998 113.85,-327.7498 66.7,-179.4 79.35,-154.1 -117.3,-230 -481.85,-188.6 -538.2,-211.6 -534.75,-226.55 4.6,-24.15 79.35,-198.95 151.8,-354.2 35.65,-79.35 77.05,-169.05 90.85,-201.25 62.1,-136.85 334.65,-618.7 445.05,-782 57.5,-86.25 163.3,-238.05 187.45,-269.1 l 20.7,-26.45 301.3,219.65 c 165.6,121.9 308.2,223.1 316.25,226.55 8.05,3.45 35.65,-24.15 65.55,-65.55 204.7,-285.2 488.75,-594.55 826.85,-901.6 184,-166.75 196.65,-177.1 227.7,-197.8 13.8,-10.35 25.3,-21.85 25.3,-26.45 0,-4.6 -105.8,-139.15 -234.6,-297.85 -129.95,-158.7 -239.2,-294.4 -243.8,-301.3 -3.45,-6.9 0,-17.25 8.05,-21.85 9.2,-5.75 34.5,-26.45 56.35,-46 93.15,-82.8 401.35,-309.35 462.3,-340.4 20.7,-10.35 48.3,-27.6 60.95,-39.1 73.6,-66.7 546.25,-336.95 810.75,-463.45 292.1,-140.3 312.8,-148.35 322,-134.55 4.6,6.9 75.9,172.5 159.85,368 l 152.95,354.2 88.55,-37.95 c 48.3,-21.85 139.1499,-57.5 202.3999,-80.5 63.25,-23 141.45,-50.6 172.5,-63.25 32.2,-11.5 109.25,-34.5 172.5,-51.75 63.25,-17.25 148.35,-41.4 189.75,-54.05 100.05,-29.9 292.1,-70.15 563.5,-119.6 123.05,-21.85 236.9,-43.7 253,-48.3 l 29.9,-8.05 -55.2,-379.5 c -29.9,-208.15 -51.75,-385.25 -49.45,-392.15 3.45,-11.5 71.3,-23 313.95,-50.6 146.05,-17.25 509.45,-34.5 715.3,-34.5 165.6,0 573.85,25.3 707.25,43.7 l 57.5,8.05 -41.4,402.5 c -27.6,271.4 -36.8,404.8 -28.75,410.55 5.75,4.6 50.6,10.35 98.9,14.95 89.7,6.9 111.55,10.35 368,58.65 208.15,37.95 235.75,44.85 316.25,66.7 37.95,10.35 116.15,32.2 172.5,47.15 227.7,60.95 678.5,224.25 805,292.1 25.3,12.65 50.6,24.15 57.5,24.15 5.75,0 80.5,-164.45 165.6,-365.7 85.1,-200.1 157.55,-369.15 163.3,-374.9 9.2,-10.35 42.55,4.6 303.6,133.4 346.15,171.35 579.6,309.35 934.95,554.3 97.75,67.85 225.4,163.3 240.35,181.7 10.35,11.5 -40.25,85.1 -234.6,341.55 l -248.4,326.6 27.6,21.85 c 14.95,12.65 66.7,51.75 113.85,86.25 102.35,77.05 336.95,290.95 507.15,463.45 135.7,136.85 399.05,430.1 449.65,500.25 50.6,69 80.5,109.25 118.45,155.25 19.55,24.15 44.85,56.35 57.5,73.6 l 23,31.05 327.75,-242.65 c 313.95,-232.3 328.9,-241.5 345,-219.65 88.55,113.85 94.3,123.05 221.95,320.85 109.25,170.2 357.65,617.55 412.85,744.05 23,50.6 59.8,131.1 81.65,178.25 64.4,134.55 126.5,300.15 115,310.5 -4.6,4.6 -172.5,74.75 -371.45,156.4 -198.95,80.5 -363.4,147.2 -365.7,149.5 -2.3,1.15 13.8,54.05 35.65,116.15 65.55,185.15 154.1,463.4498 179.4,561.1998 13.8,50.6 32.2,120.75 41.4,155.25 60.95,213.9 126.5,611.8 139.15,839.5 8.05,134.55 8.05,135.7 41.4,131.1 43.7,-8.05 771.65,-73.6 773.95,-71.3 14.95,20.7 28.75,379.5 28.75,733.7 0,354.2 -13.8,713 -28.75,733.7 -2.3,2.3 -730.25,-63.25 -773.95,-71.3 -33.35,-4.6 -33.35,-3.45 -41.4,131.1 -12.65,227.7 -78.2,625.6 -139.15,839.5 -9.2,34.5 -27.6,104.65 -41.4,155.25 -25.3,97.75 -113.85,376.05 -179.4,561.2 -21.85,62.1 -37.95,115 -35.65,116.15 2.3,2.3 166.75,69 365.7,149.5 198.95,81.65 366.85,151.8 371.45,156.4 11.5,10.35 -50.6,175.95 -115,310.5 -21.85,47.15 -58.65,127.65 -81.65,178.25 -55.2,126.5 -303.6,573.85 -412.85,744.05 -127.65,197.8 -133.4,207 -221.95,320.85 -16.1,21.85 -31.05,12.65 -345,-219.65 l -327.75,-242.65 -23,31.05 c -12.65,17.25 -37.95,49.45 -57.5,73.6 -37.95,46 -67.85,86.25 -118.45,155.25 -50.6,70.15 -313.95,363.4 -449.65,500.25 -170.2,172.5 -404.8,386.4 -507.15,463.45 -47.15,34.5 -98.9,73.6 -113.85,86.25 l -27.6,21.85 248.4,326.6 c 194.35,256.45 244.95,330.05 234.6,341.55 -14.95,18.4 -142.6,113.85 -240.35,181.7 -355.35,244.95 -588.8,382.95 -934.95,554.3 -261.05,128.8 -294.4,143.75 -303.6,133.4 -5.75,-5.75 -78.2,-174.8 -163.3,-374.9 -85.1,-201.25 -159.85,-365.7 -165.6,-365.7 -6.9,0 -32.2,11.5 -57.5,24.15 -126.5,67.85 -577.3,231.15 -805,292.1 -56.35,14.95 -134.55,36.8 -172.5,47.15 -80.5,21.85 -108.1,28.75 -316.25,66.7 -256.45,48.3 -278.3,51.75 -368,58.65 -48.3,4.6 -93.15,10.35 -98.9,14.95 -8.05,5.75 1.15,139.15 28.75,410.55 l 41.4,402.5 -57.5,8.05 c -274.85,36.8 -765.9,50.6 -1138.5,31.05 z m 649.75,-1930.85 c 558.9,-26.45 1120.1,-154.1 1730.75,-394.45 271.4,-106.95 644,-307.05 943,-506 219.65,-147.2 623.3,-479.55 800.4,-660.1 178.25,-182.85 453.1,-499.1 477.25,-549.7 8.05,-18.4 64.4,-101.2 124.2,-184 473.8,-650.9 813.05,-1506.5 925.75,-2334.5 39.1,-288.65 49.45,-446.2 49.45,-787.75 0,-341.55 -10.35,-499.1 -49.45,-787.75 -112.7,-828 -451.95,-1683.5998 -925.75,-2334.4998 -59.8,-81.65 -116.15,-164.45 -124.2,-184 -24.15,-50.6 -299,-366.85 -477.25,-549.7 -177.1,-180.55 -580.75,-512.9 -800.4,-660.1 -814.2,-542.8 -1751.45,-856.75 -2694.45,-900.45 -768.2,-36.8 -1386.9,60.95 -2147.05,335.8 -261.05,94.3 -423.2,169.05 -678.4999,312.8 -529,297.85 -829.15,529 -1282.25,992.45 -197.8,200.1 -335.8,362.25 -440.45,512.9 -249.55,362.25 -294.4,432.4 -423.2,663.55 -266.8,480.7 -476.1,1083.2998 -573.85,1650.2498 -104.65,615.25 -104.65,1282.25 0,1897.5 97.75,566.95 307.05,1169.55 573.85,1650.25 128.8,231.15 173.65,301.3 423.2,663.55 104.65,150.65 242.65,312.8 440.45,512.9 348.45,356.5 579.6,549.7 926.9,780.85 172.5,115 579.5999,339.25 734.8499,405.95 258.75,112.7 614.1,234.6 862.5,297.85 552,140.3 1008.55,184 1604.25,156.4 z" />
  </g>
</svg>
